<?xml version="1.0" encoding="UTF-8" standalone="no"?>
<!-- Generator: Adobe Illustrator 16.0.0, SVG Export Plug-In . SVG Version: 6.00 Build 0)  -->

<svg
   version="1.1"
   id="Capa_1"
   x="0px"
   y="0px"
   width="631px"
   height="210px"
   viewBox="0 0 631 210"
   enable-background="new 0 0 631 210"
   xml:space="preserve"
   sodipodi:docname="imd-ayto-logo.svg"
   inkscape:version="1.4.4 (dcaf3e7, 2026-05-05)"
   xmlns:inkscape="http://www.inkscape.org/namespaces/inkscape"
   xmlns:sodipodi="http://sodipodi.sourceforge.net/DTD/sodipodi-0.dtd"
   xmlns:xlink="http://www.w3.org/1999/xlink"
   xmlns="http://www.w3.org/2000/svg"
   xmlns:svg="http://www.w3.org/2000/svg"><defs
   id="defs7"><clipPath
     id="SVGID_2_-9">
		<use
   xlink:href="#SVGID_1_"
   overflow="visible"
   id="use1-4" />
	</clipPath></defs><sodipodi:namedview
   id="namedview7"
   pagecolor="#ffffff"
   bordercolor="#000000"
   borderopacity="0.25"
   inkscape:showpageshadow="2"
   inkscape:pageopacity="0.0"
   inkscape:pagecheckerboard="0"
   inkscape:deskcolor="#d1d1d1"
   inkscape:zoom="1.40729"
   inkscape:cx="375.89977"
   inkscape:cy="200.02984"
   inkscape:window-width="1920"
   inkscape:window-height="1009"
   inkscape:window-x="-8"
   inkscape:window-y="-8"
   inkscape:window-maximized="1"
   inkscape:current-layer="g7" />
<g
   id="g7">
	<defs
   id="defs1">
		<rect
   id="SVGID_1_"
   x="-107"
   y="-189.276"
   width="841.89"
   height="595.276" />
	</defs>
	<clipPath
   id="SVGID_2_">
		<use
   xlink:href="#SVGID_1_"
   overflow="visible"
   id="use1" />
	</clipPath>
	<rect
   x="382.26401"
   y="43.408001"
   clip-path="url(#SVGID_2_-9)"
   fill-rule="evenodd"
   clip-rule="evenodd"
   fill="#ebc200"
   width="215.013"
   height="129.908"
   id="rect4-8"
   transform="matrix(2.9346846,0,0,1.6181003,-1120.7236,-70.275316)"
   style="fill:#ffffff" /><path
   clip-path="url(#SVGID_2_)"
   fill-rule="evenodd"
   clip-rule="evenodd"
   fill="#EBC200"
   d="M95.057,67.214   c-0.215,15.939-10.639,25.926-23.241,34.105c8.024-6.924,18.69-15.901,18.811-27.639C88.765,85.401,78.403,93.297,69.51,99.734   c7.685-7.023,18.133-16.603,17.929-28.127c-2.301,12.316-10.723,19.37-20.168,26.685c7.863-7.485,17.051-16.65,16.594-28.466   c-0.33,11.432-10.455,20.641-18.489,27.318c8.005-7.954,16.145-16.855,15.417-28.951c-0.118-5.67-1.688-10.203-4.713-13.595   c-3.024-3.394-6.916-5.13-11.666-5.218c-5.648,0.102-9.963,1.907-12.947,5.412c-2.98,3.508-4.438,8.108-4.372,13.793   c0.001,3.316,0.532,6.477,1.589,9.48c1.06,2.998,2.989,5.913,5.79,8.743l31.027,30.57c3.553,3.443,6.385,7.334,8.491,11.684   c2.102,4.351,3.224,9.079,3.354,14.185c0.15,9.959-2.583,18.26-8.19,24.909c-5.609,6.651-13.963,10.107-25.057,10.361   c-6.164-0.003-11.74-1.257-16.726-3.767c-4.985-2.504-8.977-6.243-11.973-11.211c-2.993-4.968-4.588-11.146-4.785-18.531   c-0.159-16.137,10.198-26.868,23.019-35.192c-8.574,7.399-17.277,16.985-17.404,29.019c1.152-11.966,10.613-20.754,19.777-27.383   c-8.364,7.644-16.788,17.482-16.573,29.517c0.758-11.998,9.933-21.104,18.88-28.032c-8.203,7.811-16.435,17.838-15.967,29.868   c0.345-12.023,9.216-21.453,17.922-28.687c-7.797,7.745-16.22,18.2-15.283,29.966c0.211,6.71,2.039,12.243,5.537,16.357   c3.5,4.117,8.44,6.222,14.815,6.321c4.962,0.019,9.134-1.687,12.51-5.121c3.377-3.431,5.078-8.588,5.099-15.718   c-0.223-4.388-1.402-8.456-3.541-12.198c-2.139-3.748-4.345-6.867-6.615-9.094L44.865,97.196   c-3.553-3.427-6.387-7.405-8.492-11.932c-2.11-4.525-3.234-9.629-3.378-15.308c-0.034-9.554,2.738-17.196,8.306-22.929   c5.571-5.73,13.155-8.669,22.755-8.819c9.207,0.084,16.602,2.664,22.185,7.743C91.825,51.031,94.761,58.118,95.057,67.214"
   id="path1" />
	<path
   clip-path="url(#SVGID_2_)"
   d="M260.366,90.601h21.591c3.209-0.013,6.055-0.45,8.559-1.325   c2.492-0.876,4.643-2.115,6.467-3.708c1.811-1.593,3.307-3.465,4.486-5.628c1.179-2.177,2.042-4.56,2.614-7.149   c0.571-2.602,0.85-5.349,0.85-8.23c0-2.882-0.279-5.629-0.85-8.23c-0.572-2.59-1.435-4.973-2.614-7.149   c-1.179-2.164-2.675-4.048-4.486-5.641c-1.824-1.58-3.975-2.82-6.467-3.695c-2.504-0.875-5.35-1.313-8.559-1.325h-21.591V90.601z    M269.484,45.961h8.972c2.844,0,5.276,0.316,7.294,0.936c2.018,0.608,3.683,1.483,4.997,2.601c1.313,1.131,2.334,2.468,3.075,4.012   c0.742,1.544,1.265,3.246,1.568,5.106c0.292,1.873,0.438,3.854,0.426,5.945c0.012,2.091-0.134,4.072-0.426,5.944   c-0.303,1.86-0.826,3.563-1.568,5.106c-0.741,1.544-1.762,2.881-3.075,4.012c-1.314,1.119-2.979,1.994-4.997,2.601   c-2.018,0.621-4.45,0.925-7.294,0.937h-8.972V45.961z M195.174,90.601h8.68V50.41H204l14.442,40.191h7.513l14.442-40.191h0.146   v40.191h8.68v-52.08h-12.692l-14.005,40.774h-0.145l-14.369-40.774h-12.838V90.601z M174.84,90.601h9.117v-52.08h-9.117V90.601z"
   id="path2" />
	<path
   clip-path="url(#SVGID_2_)"
   d="M287.405,164.994c0.039-0.53,0.155-1.033,0.352-1.501c0.191-0.468,0.458-0.882,0.792-1.243   c0.338-0.36,0.74-0.641,1.211-0.846c0.473-0.205,1.003-0.308,1.599-0.312c0.566,0.004,1.083,0.103,1.555,0.302   c0.472,0.201,0.886,0.481,1.238,0.839c0.352,0.355,0.633,0.766,0.838,1.237c0.204,0.473,0.325,0.98,0.352,1.523H287.405z    M295.288,168.843c-0.205,0.895-0.619,1.567-1.239,2.022c-0.619,0.45-1.398,0.677-2.342,0.677c-0.753-0.005-1.407-0.129-1.956-0.37   c-0.552-0.245-1.006-0.579-1.358-0.998c-0.352-0.423-0.61-0.908-0.775-1.452c-0.165-0.543-0.236-1.118-0.213-1.724h10.342   c0.022-0.562,0-1.146-0.076-1.745c-0.076-0.602-0.209-1.199-0.401-1.791c-0.187-0.588-0.446-1.148-0.766-1.67   c-0.321-0.526-0.717-0.989-1.185-1.394c-0.472-0.405-1.02-0.728-1.657-0.958c-0.632-0.231-1.354-0.348-2.169-0.353   c-0.944,0.005-1.812,0.188-2.606,0.539c-0.788,0.357-1.474,0.855-2.053,1.501c-0.583,0.646-1.033,1.403-1.349,2.276   c-0.321,0.873-0.482,1.83-0.486,2.873c0.031,1.06,0.192,2.03,0.472,2.917c0.281,0.882,0.695,1.652,1.239,2.298   c0.543,0.65,1.224,1.154,2.039,1.511s1.778,0.538,2.878,0.543c1.038,0,1.964-0.183,2.775-0.543c0.81-0.361,1.483-0.887,2.017-1.586   c0.535-0.699,0.905-1.559,1.114-2.574H295.288z M280.409,155.267h-2.272v4.142h-2.351v2.005h2.351v8.792   c0,0.633,0.059,1.145,0.183,1.541c0.125,0.401,0.316,0.709,0.579,0.922c0.263,0.214,0.601,0.361,1.02,0.442   c0.419,0.079,0.917,0.12,1.505,0.114h1.738v-2.004h-1.043c-0.467,0.004-0.824-0.026-1.073-0.089   c-0.249-0.058-0.419-0.178-0.507-0.356c-0.095-0.179-0.134-0.44-0.13-0.784v-8.578h2.753v-2.005h-2.753V155.267z M268.202,173.225   h2.272v-6.146c-0.005-1.172,0.155-2.174,0.481-3.007c0.329-0.828,0.859-1.465,1.594-1.91c0.735-0.442,1.706-0.664,2.922-0.669   v-2.405c-0.815-0.027-1.536,0.076-2.165,0.313c-0.628,0.231-1.18,0.593-1.657,1.077c-0.476,0.49-0.894,1.105-1.255,1.845h-0.054   v-2.914h-2.138V173.225z M254.526,166.331c0.004-0.842,0.115-1.59,0.338-2.241c0.223-0.649,0.525-1.198,0.922-1.644   c0.392-0.445,0.846-0.779,1.368-1.012c0.516-0.227,1.077-0.342,1.674-0.342c0.597,0,1.158,0.115,1.675,0.342   c0.521,0.232,0.975,0.566,1.367,1.012c0.397,0.445,0.704,0.994,0.922,1.644c0.223,0.651,0.334,1.399,0.338,2.241   c-0.004,0.837-0.115,1.576-0.338,2.222c-0.218,0.646-0.525,1.194-0.922,1.634c-0.392,0.446-0.846,0.78-1.367,1.012   c-0.517,0.227-1.078,0.344-1.675,0.344c-0.597,0-1.158-0.117-1.674-0.344c-0.522-0.231-0.976-0.565-1.368-1.012   c-0.397-0.439-0.699-0.987-0.922-1.634C254.641,167.907,254.53,167.168,254.526,166.331 M252.12,166.331   c0,1.015,0.147,1.959,0.432,2.828c0.285,0.872,0.713,1.634,1.279,2.293c0.566,0.655,1.265,1.168,2.102,1.532   c0.833,0.369,1.799,0.557,2.895,0.562c1.096-0.005,2.062-0.192,2.9-0.562c0.833-0.364,1.532-0.877,2.098-1.532   c0.565-0.659,0.993-1.421,1.278-2.293c0.289-0.869,0.432-1.813,0.432-2.828c0-1.021-0.143-1.97-0.432-2.847   c-0.285-0.873-0.713-1.64-1.278-2.299c-0.566-0.658-1.265-1.171-2.098-1.536c-0.838-0.37-1.804-0.557-2.9-0.562   c-1.096,0.005-2.062,0.191-2.895,0.562c-0.837,0.365-1.536,0.878-2.102,1.536c-0.566,0.659-0.994,1.426-1.279,2.299   C252.267,164.361,252.12,165.31,252.12,166.331 M237.028,178.516h2.271v-7.134h0.054c0.258,0.404,0.565,0.748,0.926,1.024   c0.361,0.28,0.744,0.503,1.154,0.668c0.409,0.169,0.819,0.289,1.229,0.36c0.409,0.075,0.797,0.111,1.153,0.111   c1.056-0.009,1.978-0.201,2.766-0.575c0.789-0.374,1.448-0.895,1.974-1.558c0.521-0.66,0.913-1.422,1.175-2.285   c0.263-0.865,0.392-1.786,0.392-2.771s-0.133-1.91-0.396-2.783c-0.263-0.869-0.659-1.645-1.189-2.317   c-0.53-0.668-1.194-1.198-1.987-1.581c-0.797-0.383-1.724-0.579-2.788-0.588c-0.637,0-1.243,0.076-1.822,0.232   c-0.574,0.15-1.087,0.392-1.532,0.712c-0.45,0.325-0.801,0.74-1.055,1.247h-0.054v-1.871h-2.271V178.516z M247.717,166.197   c0.004,0.681-0.066,1.341-0.209,1.973c-0.147,0.637-0.379,1.207-0.699,1.71c-0.321,0.508-0.749,0.909-1.279,1.207   c-0.53,0.295-1.185,0.45-1.955,0.455c-0.779-0.005-1.448-0.152-2-0.437c-0.552-0.281-1.002-0.669-1.349-1.158   c-0.348-0.494-0.602-1.051-0.767-1.675c-0.16-0.623-0.24-1.282-0.24-1.969c0-0.654,0.075-1.292,0.232-1.906   c0.156-0.619,0.4-1.177,0.734-1.671c0.339-0.499,0.775-0.891,1.31-1.185c0.539-0.294,1.185-0.445,1.946-0.449   c0.735,0.004,1.372,0.151,1.911,0.432c0.535,0.28,0.98,0.664,1.332,1.148c0.347,0.481,0.61,1.025,0.779,1.631   S247.717,165.542,247.717,166.197 M224.18,164.994c0.039-0.53,0.156-1.033,0.352-1.501c0.191-0.468,0.459-0.882,0.792-1.243   c0.339-0.36,0.74-0.641,1.212-0.846c0.472-0.205,1.002-0.308,1.599-0.312c0.566,0.004,1.082,0.103,1.554,0.302   c0.472,0.201,0.887,0.481,1.238,0.839c0.352,0.355,0.633,0.766,0.838,1.237c0.205,0.473,0.325,0.98,0.352,1.523H224.18z    M232.063,168.843c-0.204,0.895-0.619,1.567-1.238,2.022c-0.619,0.45-1.399,0.677-2.343,0.677c-0.753-0.005-1.407-0.129-1.955-0.37   c-0.553-0.245-1.007-0.579-1.359-0.998c-0.352-0.423-0.61-0.908-0.775-1.452c-0.164-0.543-0.236-1.118-0.213-1.724h10.342   c0.022-0.562,0-1.146-0.076-1.745c-0.076-0.602-0.209-1.199-0.401-1.791c-0.187-0.588-0.445-1.148-0.766-1.67   c-0.32-0.526-0.717-0.989-1.185-1.394c-0.472-0.405-1.019-0.728-1.657-0.958c-0.632-0.231-1.353-0.348-2.169-0.353   c-0.944,0.005-1.812,0.188-2.605,0.539c-0.789,0.357-1.475,0.855-2.053,1.501c-0.584,0.646-1.034,1.403-1.35,2.276   c-0.321,0.873-0.481,1.83-0.486,2.873c0.031,1.06,0.192,2.03,0.473,2.917c0.28,0.882,0.695,1.652,1.238,2.298   c0.543,0.65,1.225,1.154,2.04,1.511s1.777,0.538,2.877,0.543c1.038,0,1.964-0.183,2.775-0.543c0.811-0.361,1.483-0.887,2.018-1.586   c0.534-0.699,0.904-1.559,1.113-2.574H232.063z M206.548,156.283h4.276c1.167,0,2.155,0.168,2.966,0.498   c0.815,0.334,1.47,0.814,1.969,1.442c0.499,0.633,0.864,1.399,1.091,2.299s0.339,1.914,0.334,3.056   c-0.005,1.167-0.125,2.164-0.352,2.997c-0.231,0.829-0.538,1.522-0.926,2.072c-0.383,0.552-0.811,0.992-1.278,1.321   c-0.468,0.326-0.94,0.571-1.422,0.735c-0.48,0.161-0.935,0.263-1.358,0.315c-0.423,0.05-0.784,0.072-1.078,0.067h-4.222V156.283z    M204.009,173.225h6.548c2.115-0.004,3.848-0.396,5.202-1.171c1.354-0.774,2.356-1.905,3.002-3.394   c0.646-1.488,0.966-3.296,0.962-5.43c-0.005-2.05-0.361-3.741-1.069-5.087c-0.708-1.345-1.746-2.348-3.109-3.011   c-1.363-0.659-3.025-0.989-4.988-0.989h-6.548V173.225z M183.512,164.994c0.04-0.53,0.156-1.033,0.352-1.501   c0.191-0.468,0.459-0.882,0.792-1.243c0.339-0.36,0.74-0.641,1.212-0.846c0.472-0.205,1.002-0.308,1.599-0.312   c0.566,0.004,1.082,0.103,1.554,0.302c0.473,0.201,0.887,0.481,1.238,0.839c0.352,0.355,0.633,0.766,0.838,1.237   c0.205,0.473,0.325,0.98,0.352,1.523H183.512z M191.395,168.843c-0.204,0.895-0.619,1.567-1.238,2.022   c-0.619,0.45-1.399,0.677-2.343,0.677c-0.753-0.005-1.407-0.129-1.955-0.37c-0.553-0.245-1.007-0.579-1.358-0.998   c-0.352-0.423-0.611-0.908-0.775-1.452c-0.165-0.543-0.237-1.118-0.214-1.724h10.342c0.022-0.562,0-1.146-0.076-1.745   c-0.076-0.602-0.209-1.199-0.401-1.791c-0.187-0.588-0.445-1.148-0.766-1.67c-0.32-0.526-0.717-0.989-1.185-1.394   c-0.472-0.405-1.019-0.728-1.656-0.958c-0.633-0.231-1.354-0.348-2.169-0.353c-0.945,0.005-1.813,0.188-2.606,0.539   c-0.789,0.357-1.474,0.855-2.053,1.501c-0.584,0.646-1.033,1.403-1.349,2.276c-0.322,0.873-0.482,1.83-0.487,2.873   c0.031,1.06,0.192,2.03,0.473,2.917c0.28,0.882,0.695,1.652,1.238,2.298c0.543,0.65,1.225,1.154,2.04,1.511   s1.777,0.538,2.877,0.543c1.038,0,1.964-0.183,2.775-0.543c0.811-0.361,1.483-0.887,2.018-1.586   c0.534-0.699,0.904-1.559,1.113-2.574H191.395z M167.591,166.437c-0.005-0.682,0.067-1.34,0.209-1.973   c0.147-0.637,0.378-1.207,0.7-1.71c0.32-0.508,0.748-0.909,1.277-1.207c0.531-0.299,1.185-0.45,1.956-0.454   c0.779,0.004,1.448,0.151,2,0.437c0.552,0.28,1.002,0.668,1.349,1.157c0.348,0.49,0.606,1.052,0.766,1.675   c0.161,0.624,0.245,1.282,0.241,1.97c0.004,0.654-0.076,1.291-0.231,1.906c-0.157,0.619-0.402,1.175-0.736,1.67   c-0.338,0.499-0.775,0.891-1.309,1.185c-0.539,0.294-1.185,0.445-1.947,0.45c-0.734-0.005-1.372-0.152-1.906-0.432   c-0.539-0.286-0.984-0.664-1.336-1.15c-0.348-0.481-0.61-1.024-0.779-1.63C167.675,167.72,167.591,167.092,167.591,166.437    M178.28,154.144h-2.271v7.109h-0.053c-0.259-0.406-0.566-0.748-0.927-1.025c-0.361-0.279-0.744-0.503-1.154-0.668   c-0.41-0.169-0.819-0.288-1.229-0.364c-0.41-0.071-0.793-0.107-1.153-0.107c-1.056,0.009-1.979,0.201-2.766,0.575   c-0.789,0.374-1.448,0.895-1.969,1.554c-0.526,0.664-0.918,1.425-1.181,2.29c-0.263,0.864-0.392,1.786-0.392,2.771   c0,0.983,0.134,1.911,0.397,2.783c0.263,0.868,0.659,1.644,1.189,2.312c0.53,0.673,1.194,1.203,1.987,1.586   c0.797,0.383,1.728,0.579,2.788,0.588c0.636,0,1.247-0.076,1.821-0.231c0.575-0.151,1.087-0.393,1.533-0.713   c0.449-0.325,0.801-0.739,1.056-1.248h0.053v1.871h2.271V154.144z M344.175,143.829h2.272v-19.081h-2.272V143.829z    M341.856,142.012c-0.147,0.054-0.276,0.088-0.388,0.107c-0.111,0.017-0.214,0.025-0.308,0.025c-0.236,0-0.405-0.054-0.508-0.164   c-0.102-0.111-0.164-0.281-0.188-0.509c-0.021-0.227-0.031-0.521-0.025-0.877v-7.107c-0.006-0.646-0.104-1.19-0.3-1.636   c-0.199-0.449-0.468-0.814-0.81-1.1c-0.343-0.281-0.735-0.504-1.176-0.655c-0.441-0.155-0.913-0.263-1.408-0.32   c-0.494-0.059-0.988-0.089-1.492-0.084c-0.774-0.005-1.505,0.075-2.19,0.239c-0.69,0.165-1.301,0.429-1.836,0.789   c-0.538,0.361-0.966,0.837-1.287,1.43c-0.32,0.588-0.498,1.31-0.538,2.165h2.271c0.04-0.674,0.214-1.198,0.514-1.581   c0.302-0.384,0.707-0.655,1.211-0.812c0.504-0.155,1.077-0.23,1.724-0.227c0.365-0.004,0.729,0.021,1.091,0.08   c0.361,0.058,0.691,0.165,0.989,0.324c0.298,0.16,0.534,0.397,0.717,0.7c0.178,0.302,0.271,0.703,0.276,1.193   c-0.005,0.419-0.129,0.744-0.374,0.971c-0.245,0.228-0.579,0.396-1.007,0.504c-0.432,0.111-0.927,0.205-1.483,0.276   s-1.154,0.164-1.786,0.281c-0.592,0.105-1.167,0.243-1.723,0.414c-0.554,0.169-1.053,0.404-1.497,0.707   c-0.446,0.304-0.798,0.704-1.057,1.208c-0.263,0.503-0.396,1.144-0.4,1.919c0.005,0.686,0.125,1.273,0.36,1.769   c0.236,0.49,0.566,0.891,0.984,1.202c0.414,0.312,0.9,0.539,1.453,0.686c0.548,0.147,1.139,0.219,1.771,0.219   c0.967,0.005,1.862-0.169,2.683-0.517c0.823-0.348,1.549-0.891,2.182-1.621c0.009,0.743,0.183,1.287,0.521,1.63   c0.343,0.343,0.811,0.513,1.402,0.508c0.361,0,0.674-0.031,0.936-0.099c0.268-0.062,0.499-0.154,0.695-0.275V142.012z    M338.169,139.018c0,0.321-0.076,0.66-0.237,1.021c-0.165,0.355-0.414,0.695-0.752,1.016c-0.339,0.316-0.774,0.578-1.31,0.779   c-0.534,0.201-1.176,0.308-1.924,0.312c-0.473,0.006-0.909-0.062-1.31-0.195c-0.405-0.129-0.73-0.343-0.979-0.643   c-0.25-0.297-0.375-0.698-0.383-1.192c0.004-0.558,0.133-1.002,0.387-1.332c0.254-0.334,0.588-0.588,1.007-0.766   c0.418-0.174,0.882-0.304,1.385-0.388c0.513-0.085,1.029-0.156,1.55-0.219c0.518-0.063,0.997-0.146,1.447-0.249   c0.445-0.103,0.82-0.258,1.119-0.468V139.018z M313.776,149.12h2.271v-7.135h0.054c0.259,0.404,0.565,0.748,0.927,1.023   c0.36,0.281,0.744,0.504,1.153,0.668c0.409,0.169,0.819,0.29,1.229,0.361c0.409,0.076,0.797,0.111,1.152,0.111   c1.057-0.01,1.979-0.2,2.767-0.574c0.789-0.374,1.448-0.896,1.974-1.56c0.521-0.658,0.913-1.421,1.175-2.284   c0.264-0.864,0.393-1.786,0.393-2.771c0-0.985-0.133-1.911-0.396-2.784c-0.263-0.869-0.658-1.644-1.188-2.315   c-0.53-0.669-1.194-1.199-1.987-1.582c-0.797-0.382-1.724-0.578-2.788-0.587c-0.637,0-1.243,0.075-1.822,0.23   c-0.573,0.152-1.087,0.393-1.531,0.713c-0.45,0.325-0.801,0.74-1.056,1.247h-0.054v-1.871h-2.271V149.12z M324.465,136.8   c0.004,0.683-0.065,1.341-0.209,1.974c-0.146,0.638-0.379,1.207-0.699,1.711c-0.32,0.507-0.749,0.908-1.278,1.207   c-0.53,0.294-1.186,0.449-1.955,0.453c-0.779-0.004-1.448-0.151-2-0.437c-0.552-0.28-1.002-0.667-1.35-1.157   c-0.348-0.495-0.602-1.052-0.767-1.675c-0.16-0.624-0.24-1.283-0.24-1.969c0-0.654,0.075-1.292,0.232-1.906   c0.156-0.619,0.399-1.176,0.733-1.67c0.34-0.499,0.775-0.891,1.311-1.185c0.539-0.295,1.184-0.445,1.946-0.45   c0.734,0.005,1.371,0.15,1.91,0.432c0.535,0.281,0.98,0.664,1.332,1.149c0.348,0.48,0.61,1.024,0.779,1.63   S324.465,136.145,324.465,136.8 M310.094,124.748h-2.272v2.779h2.272V124.748z M307.822,143.829h2.272v-13.817h-2.272V143.829z    M304.996,134.448c-0.085-0.819-0.294-1.532-0.629-2.128c-0.333-0.603-0.765-1.097-1.3-1.484c-0.534-0.387-1.14-0.677-1.826-0.864   c-0.686-0.187-1.421-0.279-2.205-0.279c-1.095,0.004-2.052,0.194-2.868,0.573c-0.815,0.374-1.496,0.9-2.035,1.572   c-0.539,0.673-0.944,1.457-1.216,2.353c-0.267,0.896-0.401,1.861-0.401,2.903c0,1.033,0.138,1.979,0.419,2.838   c0.276,0.859,0.686,1.604,1.234,2.231c0.543,0.632,1.215,1.118,2.022,1.461c0.806,0.347,1.737,0.521,2.792,0.525   c1.158-0.005,2.164-0.219,3.011-0.646c0.846-0.424,1.532-1.038,2.048-1.836c0.517-0.801,0.865-1.763,1.034-2.89h-2.325   c-0.098,0.698-0.308,1.296-0.628,1.799c-0.321,0.503-0.744,0.887-1.274,1.158c-0.53,0.271-1.163,0.405-1.893,0.409   c-0.721-0.004-1.335-0.151-1.848-0.432c-0.512-0.28-0.931-0.664-1.251-1.14c-0.321-0.481-0.561-1.021-0.713-1.617   c-0.152-0.601-0.222-1.221-0.222-1.862c-0.005-0.708,0.067-1.385,0.209-2.025c0.142-0.646,0.378-1.222,0.708-1.725   c0.329-0.508,0.771-0.909,1.328-1.197c0.552-0.295,1.237-0.445,2.056-0.45c0.94,0.005,1.702,0.245,2.281,0.726   c0.583,0.478,0.962,1.154,1.14,2.026H304.996z M289.663,124.748h-2.272v2.779h2.272V124.748z M287.391,143.829h2.272v-13.817   h-2.272V143.829z M272.324,143.829h2.273v-7.803c0-0.624,0.084-1.199,0.253-1.725c0.165-0.525,0.419-0.984,0.758-1.372   c0.338-0.392,0.765-0.694,1.277-0.908c0.513-0.215,1.114-0.32,1.8-0.325c0.583,0.005,1.083,0.116,1.501,0.347   c0.419,0.229,0.739,0.548,0.962,0.963c0.227,0.414,0.343,0.904,0.343,1.469v9.354h2.272v-9.087   c0.004-0.743-0.076-1.425-0.232-2.039c-0.16-0.619-0.419-1.149-0.784-1.6c-0.365-0.449-0.851-0.798-1.465-1.043   c-0.61-0.239-1.372-0.364-2.276-0.368c-0.993-0.005-1.866,0.199-2.623,0.613c-0.762,0.41-1.382,1.042-1.867,1.898h-0.053v-2.192   h-2.139V143.829z M268.83,130.012h-2.271v7.805c0,0.624-0.086,1.197-0.25,1.724c-0.169,0.525-0.423,0.984-0.762,1.372   c-0.338,0.391-0.766,0.688-1.278,0.908c-0.512,0.214-1.109,0.32-1.8,0.324c-0.583-0.004-1.082-0.119-1.5-0.348   c-0.419-0.227-0.74-0.547-0.963-0.961c-0.227-0.414-0.338-0.904-0.342-1.47v-9.354h-2.272v9.086   c-0.004,0.744,0.076,1.427,0.231,2.041c0.161,0.614,0.419,1.148,0.784,1.6c0.366,0.449,0.851,0.792,1.466,1.037   c0.61,0.244,1.372,0.369,2.276,0.374c0.993,0,1.866-0.205,2.628-0.614c0.757-0.414,1.376-1.043,1.861-1.898h0.054v2.192h2.138   V130.012z M234.469,143.829h2.405v-15.874h0.054l5.959,15.874h2.164l5.96-15.874h0.053v15.874h2.406v-19.081h-3.475l-6.039,16.034   l-6.013-16.034h-3.474V143.829z M212.929,136.934c0.004-0.842,0.116-1.59,0.338-2.239c0.223-0.651,0.526-1.199,0.923-1.645   c0.392-0.444,0.846-0.778,1.367-1.011c0.517-0.227,1.078-0.343,1.674-0.343c0.597,0,1.159,0.116,1.675,0.343   c0.521,0.232,0.976,0.566,1.368,1.011c0.396,0.445,0.703,0.993,0.922,1.645c0.223,0.649,0.334,1.397,0.338,2.239   c-0.004,0.838-0.115,1.576-0.338,2.224c-0.219,0.646-0.526,1.192-0.922,1.634c-0.392,0.446-0.847,0.779-1.368,1.011   c-0.516,0.228-1.078,0.343-1.675,0.343c-0.596,0-1.157-0.115-1.674-0.343c-0.521-0.231-0.975-0.564-1.367-1.011   c-0.397-0.441-0.7-0.988-0.923-1.634C213.045,138.51,212.933,137.771,212.929,136.934 M210.524,136.934   c0,1.017,0.147,1.96,0.432,2.828c0.285,0.873,0.712,1.636,1.278,2.294c0.566,0.655,1.265,1.167,2.102,1.532   c0.834,0.37,1.8,0.557,2.895,0.562c1.097-0.005,2.063-0.191,2.9-0.562c0.833-0.365,1.532-0.877,2.098-1.532   c0.565-0.658,0.993-1.421,1.279-2.294c0.289-0.868,0.431-1.812,0.431-2.828c0-1.02-0.142-1.969-0.431-2.846   c-0.286-0.873-0.714-1.639-1.279-2.298c-0.566-0.66-1.265-1.172-2.098-1.537c-0.837-0.37-1.803-0.557-2.9-0.561   c-1.095,0.004-2.061,0.19-2.895,0.561c-0.837,0.365-1.536,0.877-2.102,1.537c-0.566,0.659-0.993,1.425-1.278,2.298   C210.671,134.965,210.524,135.914,210.524,136.934 M205.934,125.871h-2.272v4.141h-2.351v2.005h2.351v8.792   c0,0.633,0.058,1.146,0.183,1.541c0.125,0.401,0.316,0.708,0.579,0.923c0.263,0.214,0.601,0.36,1.02,0.44s0.917,0.12,1.505,0.116   h1.737v-2.004h-1.042c-0.468,0.003-0.824-0.028-1.073-0.09c-0.249-0.059-0.419-0.179-0.508-0.356   c-0.094-0.178-0.133-0.441-0.129-0.784v-8.578h2.752v-2.005h-2.752V125.871z M199.285,130.012h-2.271v7.805   c0,0.624-0.085,1.197-0.249,1.724c-0.17,0.525-0.423,0.984-0.762,1.372c-0.339,0.391-0.767,0.688-1.278,0.908   c-0.513,0.214-1.11,0.32-1.8,0.324c-0.584-0.004-1.082-0.119-1.501-0.348c-0.419-0.227-0.739-0.547-0.962-0.961   c-0.227-0.414-0.338-0.904-0.343-1.47v-9.354h-2.272v9.086c-0.004,0.744,0.076,1.427,0.232,2.041c0.16,0.614,0.418,1.148,0.784,1.6   c0.365,0.449,0.851,0.792,1.465,1.037c0.61,0.244,1.372,0.369,2.276,0.374c0.994,0,1.867-0.205,2.629-0.614   c0.756-0.414,1.375-1.043,1.861-1.898h0.054v2.192h2.137V130.012z M182.51,125.871h-2.273v4.141h-2.351v2.005h2.351v8.792   c0,0.633,0.059,1.146,0.183,1.541c0.125,0.401,0.317,0.708,0.579,0.923c0.263,0.214,0.601,0.36,1.021,0.44   c0.418,0.08,0.916,0.12,1.504,0.116h1.738v-2.004h-1.043c-0.468,0.003-0.824-0.028-1.073-0.09   c-0.249-0.059-0.419-0.179-0.507-0.356c-0.094-0.178-0.134-0.441-0.129-0.784v-8.578h2.752v-2.005h-2.752V125.871z    M175.754,124.748h-2.272v2.779h2.272V124.748z M173.482,143.829h2.272v-13.817h-2.272V143.829z M168.011,125.871h-2.271v4.141   h-2.351v2.005h2.351v8.792c0,0.633,0.058,1.146,0.183,1.541c0.124,0.401,0.316,0.708,0.579,0.923c0.263,0.214,0.601,0.36,1.02,0.44   c0.418,0.08,0.917,0.12,1.505,0.116h1.737v-2.004h-1.042c-0.468,0.003-0.824-0.028-1.074-0.09   c-0.249-0.059-0.418-0.179-0.507-0.356c-0.094-0.178-0.134-0.441-0.129-0.784v-8.578h2.752v-2.005h-2.752V125.871z M150.54,139.473   c0.04,0.855,0.219,1.576,0.535,2.174c0.32,0.597,0.743,1.077,1.278,1.447c0.534,0.369,1.149,0.638,1.834,0.807   c0.691,0.169,1.426,0.249,2.205,0.249c0.565,0,1.127-0.044,1.688-0.139c0.562-0.093,1.091-0.239,1.595-0.45   c0.499-0.203,0.944-0.476,1.336-0.814c0.387-0.338,0.695-0.748,0.918-1.238c0.222-0.484,0.338-1.06,0.342-1.715   c-0.004-0.664-0.133-1.22-0.387-1.67c-0.249-0.45-0.593-0.82-1.02-1.105c-0.427-0.289-0.909-0.521-1.443-0.698   c-0.539-0.184-1.092-0.329-1.666-0.454c-0.535-0.125-1.064-0.245-1.595-0.361c-0.53-0.12-1.015-0.258-1.456-0.423   c-0.436-0.16-0.793-0.37-1.056-0.628c-0.267-0.258-0.401-0.592-0.409-0.993c0.004-0.348,0.093-0.633,0.267-0.864   c0.174-0.228,0.405-0.41,0.69-0.539c0.29-0.134,0.606-0.227,0.949-0.28c0.343-0.059,0.686-0.084,1.033-0.08   c0.379-0.004,0.748,0.036,1.109,0.116c0.366,0.075,0.695,0.204,0.998,0.383c0.298,0.178,0.548,0.419,0.744,0.717   c0.192,0.298,0.311,0.668,0.356,1.109h2.272c-0.049-0.838-0.232-1.536-0.535-2.099c-0.307-0.561-0.717-1.002-1.225-1.331   c-0.512-0.326-1.1-0.557-1.763-0.694c-0.664-0.144-1.376-0.21-2.143-0.205c-0.485,0-0.971,0.044-1.461,0.142   c-0.485,0.094-0.953,0.241-1.394,0.441c-0.44,0.195-0.832,0.449-1.179,0.762c-0.343,0.308-0.62,0.677-0.816,1.109   c-0.2,0.428-0.303,0.918-0.307,1.474c0.004,0.655,0.138,1.207,0.392,1.653c0.254,0.444,0.592,0.814,1.025,1.1   c0.432,0.285,0.912,0.516,1.447,0.695c0.534,0.182,1.086,0.33,1.652,0.454c0.574,0.119,1.127,0.244,1.666,0.364   c0.534,0.125,1.015,0.272,1.443,0.446c0.432,0.174,0.77,0.401,1.02,0.681c0.253,0.28,0.383,0.638,0.387,1.073   c-0.004,0.433-0.111,0.784-0.32,1.056c-0.21,0.272-0.481,0.481-0.82,0.623c-0.334,0.148-0.695,0.25-1.082,0.304   c-0.383,0.054-0.757,0.081-1.118,0.075c-0.472,0-0.927-0.039-1.359-0.133c-0.431-0.089-0.824-0.236-1.171-0.441   c-0.348-0.204-0.623-0.481-0.833-0.823c-0.21-0.343-0.329-0.767-0.351-1.274H150.54z M136.489,143.829h2.272v-7.803   c0-0.624,0.084-1.199,0.254-1.725c0.165-0.525,0.418-0.984,0.757-1.372c0.338-0.392,0.766-0.694,1.278-0.908   c0.513-0.215,1.114-0.32,1.8-0.325c0.583,0.005,1.082,0.116,1.501,0.347c0.418,0.229,0.739,0.548,0.961,0.963   c0.228,0.414,0.344,0.904,0.344,1.469v9.354h2.271v-9.087c0.005-0.743-0.076-1.425-0.232-2.039c-0.16-0.619-0.418-1.149-0.784-1.6   c-0.365-0.449-0.85-0.798-1.465-1.043c-0.61-0.239-1.372-0.364-2.276-0.368c-0.993-0.005-1.866,0.199-2.623,0.613   c-0.762,0.41-1.381,1.042-1.867,1.898h-0.053v-2.192h-2.138V143.829z M129.975,143.829h2.539v-19.081h-2.539V143.829z"
   id="path3" />
	<path
   clip-path="url(#SVGID_2_)"
   d="M299.29,168.869c0.04,0.855,0.218,1.576,0.534,2.173c0.321,0.598,0.744,1.078,1.279,1.448   c0.534,0.369,1.149,0.637,1.834,0.807c0.691,0.169,1.426,0.248,2.205,0.248c0.566,0,1.127-0.044,1.688-0.138   c0.562-0.093,1.091-0.24,1.595-0.45c0.499-0.204,0.944-0.476,1.336-0.814c0.388-0.338,0.695-0.748,0.918-1.238   c0.222-0.485,0.338-1.06,0.342-1.715c-0.004-0.663-0.133-1.22-0.387-1.67c-0.249-0.45-0.593-0.82-1.02-1.105   c-0.427-0.289-0.909-0.521-1.443-0.697c-0.539-0.184-1.091-0.33-1.666-0.455c-0.534-0.125-1.064-0.245-1.594-0.36   c-0.53-0.121-1.016-0.259-1.457-0.424c-0.436-0.16-0.793-0.37-1.055-0.628c-0.268-0.258-0.402-0.592-0.41-0.993   c0.004-0.348,0.093-0.633,0.267-0.864c0.174-0.227,0.405-0.41,0.69-0.539c0.29-0.134,0.606-0.227,0.949-0.28   c0.343-0.059,0.686-0.084,1.033-0.08c0.379-0.004,0.749,0.035,1.109,0.115c0.366,0.076,0.695,0.205,0.998,0.384   c0.298,0.178,0.548,0.419,0.744,0.717c0.192,0.298,0.312,0.668,0.356,1.108h2.272c-0.049-0.837-0.232-1.535-0.535-2.098   c-0.307-0.561-0.717-1.001-1.224-1.331c-0.513-0.325-1.1-0.557-1.764-0.695c-0.664-0.143-1.376-0.21-2.143-0.204   c-0.485,0-0.971,0.044-1.461,0.142c-0.485,0.094-0.953,0.241-1.394,0.441c-0.441,0.195-0.833,0.449-1.18,0.762   c-0.343,0.308-0.619,0.677-0.815,1.108c-0.201,0.429-0.303,0.918-0.307,1.476c0.004,0.654,0.138,1.206,0.391,1.651   c0.255,0.445,0.593,0.815,1.025,1.101c0.432,0.285,0.913,0.516,1.448,0.695c0.534,0.182,1.086,0.328,1.652,0.453   c0.574,0.12,1.127,0.245,1.666,0.366c0.534,0.124,1.015,0.271,1.443,0.445c0.432,0.174,0.771,0.401,1.02,0.681   c0.254,0.28,0.383,0.638,0.387,1.073c-0.004,0.433-0.111,0.784-0.32,1.056c-0.21,0.272-0.481,0.481-0.82,0.623   c-0.334,0.148-0.695,0.25-1.082,0.304c-0.383,0.054-0.757,0.081-1.118,0.075c-0.472,0-0.927-0.04-1.359-0.133   c-0.431-0.089-0.823-0.236-1.171-0.441c-0.347-0.204-0.623-0.48-0.833-0.823s-0.33-0.768-0.352-1.274H299.29z"
   id="path4" />
	
		<rect
   x="382.264"
   y="43.408"
   clip-path="url(#SVGID_2_)"
   fill-rule="evenodd"
   clip-rule="evenodd"
   fill="#EBC200"
   width="215.013"
   height="129.908"
   id="rect4" />
	<path
   clip-path="url(#SVGID_2_)"
   fill-rule="evenodd"
   clip-rule="evenodd"
   d="M568.972,96.327c0,3.26-0.67,6.028-1.965,8.44   s-3.081,4.243-5.358,5.539c-2.322,1.339-5.047,2.009-8.172,2.009c-3.082-0.044-5.852-0.67-8.174-2.009   c-2.321-1.296-4.107-3.171-5.358-5.539c-1.295-2.367-1.92-5.18-1.965-8.44c0.045-4.913,1.474-8.798,4.242-11.656   c2.77-2.858,6.521-4.288,11.255-4.377c4.688,0.089,8.439,1.519,11.209,4.377C567.454,87.529,568.928,91.414,568.972,96.327    M562.006,96.327c0-3.216-0.76-5.717-2.233-7.637c-1.474-1.876-3.572-2.903-6.252-2.903c-2.725,0.045-4.823,1.027-6.298,2.903   c-1.473,1.876-2.188,4.421-2.188,7.637c0,3.215,0.759,5.716,2.188,7.592c1.475,1.92,3.618,2.902,6.298,2.902   c2.725-0.044,4.823-1.027,6.252-2.902C561.246,102.043,562.006,99.542,562.006,96.327 M534.272,96.461   c-0.044,3.126-0.76,5.894-2.144,8.306s-3.394,4.243-5.895,5.583c-2.545,1.295-5.538,2.01-9.021,2.01   c-1.876,0-3.662-0.134-5.27-0.402c-1.652-0.268-3.261-0.625-4.778-0.981V81.411c1.652-0.268,3.26-0.536,4.778-0.76   c1.563-0.178,3.35-0.268,5.358-0.312c5.315,0.044,9.469,1.429,12.415,4.153C532.71,87.261,534.229,91.235,534.272,96.461    M527.306,96.461c-0.045-3.528-0.982-6.208-2.902-8.084c-1.92-1.92-4.689-2.858-8.307-2.858h-2.277v21.168   c1.071,0.224,2.188,0.358,3.438,0.447c2.144-0.045,3.931-0.491,5.448-1.474c1.474-0.938,2.635-2.143,3.439-3.751   C526.859,100.301,527.306,98.515,527.306,96.461 M472.867,96.327c-0.044,3.26-0.67,6.028-1.965,8.44s-3.081,4.243-5.359,5.539   c-2.322,1.339-5.046,2.009-8.172,2.009c-3.126-0.044-5.851-0.67-8.173-2.009c-2.322-1.296-4.108-3.171-5.359-5.539   c-1.295-2.367-1.92-5.18-1.965-8.44c0.09-4.913,1.474-8.798,4.243-11.656c2.769-2.858,6.52-4.288,11.254-4.377   c4.689,0.089,8.439,1.519,11.209,4.377C471.349,87.529,472.823,91.414,472.867,96.327 M465.9,96.327   c0-3.216-0.76-5.717-2.232-7.637c-1.474-1.876-3.573-2.903-6.253-2.903c-2.768,0.045-4.823,1.027-6.297,2.903   c-1.473,1.876-2.188,4.421-2.188,7.637c0,3.215,0.76,5.716,2.188,7.592c1.474,1.92,3.573,2.902,6.297,2.902   c2.724-0.044,4.823-0.982,6.253-2.902C465.186,102.043,465.9,99.542,465.9,96.327 M437.319,112.359h-3.306l-16.076-20.141v20.141   h-5.896v-27.51l-3.26-4.51h8.396l14.201,18.31v-18.31h5.94V112.359z"
   id="path5" />
	<path
   clip-path="url(#SVGID_2_)"
   fill-rule="evenodd"
   clip-rule="evenodd"
   d="M503.324,77.168   c-0.089,7.413-4.957,12.058-10.807,15.898c3.751-3.26,8.663-7.413,8.753-12.906c-0.894,5.493-5.716,9.155-9.825,12.147   c3.573-3.26,8.439-7.726,8.351-13.085c-1.071,5.717-5.002,9.021-9.423,12.415c3.662-3.483,7.949-7.726,7.727-13.263   c-0.135,5.359-4.868,9.601-8.574,12.728c3.706-3.707,7.502-7.816,7.145-13.443c-0.045-2.635-0.804-4.778-2.144-6.341   c-1.429-1.608-3.26-2.367-5.448-2.412c-2.635,0.045-4.6,0.893-6.029,2.501c-1.384,1.652-2.054,3.751-2.054,6.431   c0,1.518,0.269,3.037,0.759,4.421c0.491,1.384,1.385,2.724,2.725,4.064l14.47,14.246c1.652,1.608,2.947,3.439,3.929,5.448   c0.983,2.01,1.475,4.243,1.564,6.565c0.089,4.689-1.206,8.485-3.797,11.611c-2.635,3.082-6.521,4.689-11.7,4.868   c-2.903,0-5.493-0.625-7.815-1.786c-2.321-1.161-4.152-2.903-5.583-5.226c-1.384-2.321-2.143-5.181-2.231-8.663   c-0.045-7.503,4.732-12.504,10.718-16.391c-3.975,3.439-8.039,7.905-8.128,13.532c0.536-5.582,4.957-9.691,9.244-12.772   c-3.885,3.572-7.815,8.172-7.727,13.799c0.357-5.583,4.601-9.825,8.799-13.085c-3.797,3.617-7.638,8.307-7.458,13.934   c0.179-5.627,4.331-10.004,8.351-13.398c-3.617,3.617-7.547,8.485-7.101,13.934c0.09,3.125,0.938,5.716,2.546,7.636   c1.651,1.92,3.974,2.903,6.922,2.947c2.322,0,4.287-0.803,5.85-2.366c1.563-1.608,2.367-3.975,2.367-7.324   c-0.134-2.055-0.625-3.93-1.652-5.672c-0.982-1.742-2.055-3.215-3.082-4.242l-12.994-12.773c-1.653-1.608-2.948-3.439-3.931-5.537   c-0.982-2.1-1.474-4.466-1.563-7.101c0-4.466,1.295-7.994,3.885-10.674c2.59-2.679,6.118-4.063,10.584-4.108   c4.332,0.045,7.726,1.25,10.315,3.617C501.807,69.621,503.19,72.926,503.324,77.168"
   id="path6" />
	<path
   clip-path="url(#SVGID_2_)"
   fill-rule="evenodd"
   clip-rule="evenodd"
   d="M570.759,152.774h-1.475l-0.803-1.965h-3.394   l-0.805,1.965h-1.34l3.305-7.413l-0.357-0.893h1.474L570.759,152.774z M568.079,149.828l-1.251-3.082l-1.295,3.082H568.079z    M562.631,151.659l-0.446,1.16h-4.243v-8.307h1.385v7.146H562.631z M557.183,151.659l-0.447,1.16h-4.242v-8.307h1.384v7.146   H557.183z M550.216,152.774h-1.385v-8.307h1.385V152.774z M547.849,144.513l-3.395,8.262l-1.25,0.18l-3.036-8.441h1.519l2.231,6.61   l2.592-6.61H547.849z M539.811,151.659l-0.491,1.16h-4.868v-8.307h5.092l-0.357,1.117h-3.35v2.456h3.082l-0.358,1.072h-2.769v2.501   H539.811z M532.755,150.007c0,0.937-0.313,1.652-0.983,2.188c-0.625,0.536-1.473,0.805-2.456,0.805   c-0.446,0-0.938-0.045-1.34-0.135c-0.446-0.134-0.849-0.224-1.205-0.357l-0.269-1.831c0.357,0.313,0.804,0.536,1.205,0.715   c0.402,0.223,0.983,0.269,1.475,0.313c0.536-0.044,0.982-0.179,1.295-0.446c0.402-0.269,0.581-0.625,0.625-1.161   c-0.044-0.313-0.134-0.581-0.313-0.804c-0.179-0.224-0.401-0.402-0.625-0.581c-0.224-0.134-0.401-0.224-0.581-0.313l-0.981-0.625   c-0.715-0.401-1.206-0.849-1.52-1.296c-0.312-0.446-0.445-0.981-0.445-1.473c0.044-0.983,0.356-1.697,0.981-2.233   s1.475-0.804,2.546-0.849c0.446,0.045,0.938,0.134,1.34,0.268c0.446,0.134,0.76,0.269,0.982,0.447v1.652   c-0.268-0.313-0.625-0.536-0.982-0.76c-0.402-0.179-0.804-0.313-1.296-0.313c-0.535,0-0.981,0.134-1.384,0.402   c-0.401,0.313-0.625,0.67-0.625,1.206c0,0.446,0.178,0.804,0.491,1.026c0.313,0.313,0.67,0.536,1.116,0.804l0.982,0.625   c0.313,0.18,0.58,0.358,0.849,0.627c0.268,0.268,0.536,0.534,0.715,0.893C532.62,149.158,532.755,149.515,532.755,150.007    M522.036,151.659l-0.49,1.16h-4.868v-8.307h5.091l-0.357,1.117h-3.35v2.456h3.082l-0.358,1.072h-2.724v2.501H522.036z    M514.936,148.667c-0.045,1.295-0.447,2.367-1.25,3.126c-0.804,0.759-1.965,1.161-3.439,1.206   c-0.535-0.045-1.026-0.045-1.474-0.135c-0.446-0.09-0.848-0.179-1.206-0.313v-7.994c0.402-0.045,0.804-0.134,1.206-0.179   c0.402-0.044,0.893-0.044,1.519-0.044c1.474,0,2.635,0.401,3.438,1.161C514.533,146.3,514.891,147.372,514.936,148.667    M513.507,148.711c0-1.027-0.313-1.831-0.894-2.411c-0.581-0.581-1.474-0.894-2.68-0.894h-0.894v6.342   c0.224,0.045,0.447,0.09,0.625,0.134c0.225,0.045,0.447,0.09,0.626,0.09c0.715,0,1.296-0.134,1.786-0.447   c0.491-0.268,0.849-0.715,1.116-1.161C513.372,149.828,513.507,149.292,513.507,148.711 M493.946,144.558l-0.447,1.161h-2.366   v7.146h-1.385v-7.146h-2.277v-1.161H493.946z M486.398,152.819h-0.714l-4.957-5.806v5.806h-1.251v-7.368l-0.804-0.938h1.786   l4.689,5.538v-5.538h1.25V152.819z M419.455,152.819h-1.696l-0.938-2.546h-3.885l-0.893,2.546h-1.475l3.707-9.779l-0.402-0.894   h1.697L419.455,152.819z M416.374,149.112l-1.519-4.197l-1.473,4.197H416.374z M456.925,152.819h-1.52l-0.804-1.965h-3.395   l-0.848,1.965h-1.295l3.305-7.413l-0.401-0.894h1.473L456.925,152.819z M454.2,149.873l-1.251-3.082l-1.34,3.082H454.2z    M502.521,148.667c-0.045,1.295-0.402,2.367-1.161,3.126s-1.742,1.161-2.992,1.206c-1.251-0.045-2.232-0.447-2.992-1.206   c-0.76-0.805-1.16-1.831-1.16-3.126c0-0.805,0.178-1.563,0.534-2.233c0.358-0.625,0.85-1.161,1.475-1.474   c0.625-0.402,1.34-0.581,2.144-0.581c0.805,0,1.519,0.179,2.188,0.581c0.625,0.356,1.116,0.849,1.474,1.474   C502.342,147.104,502.521,147.862,502.521,148.667 M501.002,148.667c0-0.938-0.224-1.653-0.67-2.278   c-0.49-0.58-1.16-0.893-2.01-0.893c-0.804,0-1.474,0.313-1.965,0.893c-0.446,0.625-0.714,1.34-0.714,2.278   c0,0.981,0.268,1.696,0.714,2.276c0.447,0.625,1.161,0.895,1.965,0.938c0.85-0.044,1.52-0.313,2.01-0.938   C500.823,150.363,501.002,149.648,501.002,148.667 M477.824,151.703l-0.491,1.161h-4.867v-8.307h5.091l-0.357,1.117h-3.35v2.456   h3.082l-0.358,1.072h-2.768v2.545h4.019V151.703z M470.099,152.819h-1.384v-8.307h1.384V152.819z M466.214,152.819h-1.43v-6.028   l-2.813,4.287l-2.59-4.287v6.028h-1.206v-7.592l-0.58-0.715h2.009l2.769,4.332l2.77-4.332h1.116v8.307H466.214z M433.434,144.558   v5.136c0,0.625-0.089,1.161-0.357,1.652c-0.268,0.492-0.625,0.938-1.115,1.206c-0.492,0.268-1.117,0.447-1.831,0.447   c-1.161,0-2.011-0.269-2.592-0.85c-0.625-0.58-0.893-1.384-0.893-2.456v-5.181h1.385v5.047c0,0.67,0.178,1.25,0.536,1.652   c0.357,0.447,0.848,0.626,1.518,0.626c0.625-0.045,1.161-0.225,1.475-0.626c0.356-0.402,0.491-0.894,0.491-1.519v-5.181h1.384   V144.558z M425.798,144.558l-2.903,4.868v3.438h-1.384v-3.527l-2.726-4.779h1.563l2.01,3.618l2.099-3.618H425.798z    M450.181,144.558l-0.446,1.161h-2.323v7.146h-1.384v-7.146h-2.278v-1.161H450.181z M442.634,152.819h-0.716l-4.957-5.806v5.806   h-1.25v-7.368l-0.804-0.938h1.786l4.646,5.538v-5.538h1.25v8.307H442.634z"
   id="path7" />
</g>
</svg>
